<svg height="244.4" preserveAspectRatio="xMidYMid" viewBox="-243.59692383 -47.2 987.19384766 244.4" width="987.193848" xmlns="http://www.w3.org/2000/svg" xmlns:xlink="http://www.w3.org/1999/xlink"><filter id="a" height="300%" width="300%" x="-100%" y="-100%"><feFlood flood-color="#fff" result="color1"/><feConvolveMatrix divisor="1" in="SourceAlpha" kernelMatrix="1 0 0 0 0 0 0 1 0 0 0 0 0 0 1 0 0 0 0 0 0 1 0 0 0 0 0 0 1 0 0 0 0 0 0 1" order="6,6" result="extrude"/><feComposite in="color1" in2="extrude" operator="in" result="comp-extrude"/><feOffset dx="3" dy="3" in="comp-extrude" result="offset-extrude"/><feMerge><feMergeNode in="offset-extrude"/><feMergeNode in="SourceGraphic"/></feMerge></filter><g filter="url(#a)"><path d="m82.09-23.73q-.29 0-.5.03-.2.03-.44.03-2.87 6.44-5.07 11.31-2.19 4.86-3.37 7.03-.99 1.81-2.25 3.16-1.26 1.35-2.67 2.26-1.4.91-2.84 1.35-1.43.44-2.66.44-1.82 0-3.05-.88-1.23-.88-1.23-2.64 0-1.52.94-3.57l8.43-17.88q-6.38.24-12.27.41-5.89.18-11.34.3-2.75 5.62-5.92 10.57-3.16 4.95-6.68 8.65-3.51 3.69-7.32 5.83-3.81 2.13-7.91 2.13-3.17 0-5.86-1.64-.82-.35-1.79-1.31-.97-.97-1.79-2.32-.82-1.35-1.37-2.93-.56-1.58-.56-3.22 0-1.17.41-2.26.41-1.08 1.17-2.08.35-.41.82-1.05.47-.65 1.12-1.26.64-.62 1.37-1.03.74-.41 1.61-.41.36 0 .71.09.35.09.64.32.59.35 1.14 1.59.56 1.23 1.23 2.54.68 1.32 1.5 2.38.82 1.05 1.93 1.05 1.58 0 3.2-1.2 1.61-1.2 3.28-3.34 1.67-2.14 3.37-5.13 1.7-2.98 3.39-6.5-1.87-.59-2.63-1.67-.76-1.08-.76-2.26 0-.7.52-1.4.53-.71 1.47-1.26.94-.56 2.2-.97 1.26-.41 2.78-.47 2.11-5.15 4.04-10.72 1.94-5.57 3.69-10.9 1.76-5.33 3.23-10.22 1.46-4.9 2.57-8.76 1.12-3.87 1.82-6.39.7-2.52.88-3.16.47-1.82 1.79-2.64 1.32-.82 2.84-.82 2.28 0 3.48 1.49 1.21 1.5 1.21 5.42 0 .47 0 .97 0 .5-.06 1.08-.12 1.53-.59 4.13-.47 2.61-1.23 6.01-.76 3.4-1.87 7.47-1.12 4.07-2.49 8.5-1.38 4.42-3.05 9.11-1.67 4.69-3.6 9.32 1.81 0 3.98 0 2.17 0 4.89.02 2.73.03 6.18.12 3.46.09 7.91.21.06 0 .12.03.06.03.12.03 5.15-10.84 9.78-20.42 4.63-9.58 8.5-16.76 3.87-7.18 6.86-11.34 2.98-4.16 4.92-4.16 2.05 0 3.07.97 1.03.96 1.03 2.6 0 .88-.21 1.56-.2.67-.55 1.49-1.53 3.69-3.87 9.08-2.34 5.39-5.1 11.63-2.75 6.24-5.71 12.95-2.96 6.71-5.71 12.98 1.75.35 2.9.97 1.14.61 1.14 1.61 0 1.29-1.35 2.43-1.35 1.14-4.51 1.32zm33.16-8.26q-2.75 0-5.33 1.4-2.58 1.41-4.57 3.7-1.99 2.28-3.16 5.12-1.17 2.84-1.17 5.72 0 1.17.14 2.43.15 1.26.68 2.31.52 1.06 1.49 1.76.97.7 2.61.7 1.29 0 3.02-1.14 1.72-1.14 3.57-2.93 1.85-1.79 3.6-3.93 1.76-2.13 3.17-4.19 1.4-2.05 2.28-3.69.88-1.64.88-2.4 0-1.11-.76-2.02-.76-.91-1.88-1.55-1.11-.65-2.37-.97-1.26-.32-2.2-.32zm40.61 15.11q-1.06 1-2.81 2.76-1.76 1.76-4.02 3.81-2.25 2.05-4.8 4.13-2.55 2.08-5.22 3.78-2.66 1.7-5.24 2.78-2.58 1.08-4.86 1.08-2.05 0-3.52-.87-1.46-.88-2.43-2.29-.97-1.41-1.44-3.19-.47-1.79-.47-3.66 0-1.24.18-2.44.18-1.2.59-2.25-1.82 2.46-4.13 5.07-2.32 2.6-4.98 4.74-2.67 2.14-5.57 3.52-2.9 1.37-5.89 1.37-1.52 0-3.54-.61-2.03-.62-3.84-2.02-1.82-1.41-3.05-3.63-1.23-2.23-1.23-5.45 0-2.41.73-5.75.73-3.34 2.23-6.94 1.49-3.6 3.81-7.12 2.31-3.51 5.48-6.3 3.16-2.78 7.2-4.51 4.05-1.73 9.03-1.73 2.57 0 4.51.65 1.93.64 3.28 1.4 1.52.94 2.69 2.05 1-.52 2.06-.99.87-.41 1.84-.73.97-.33 1.67-.33 2.23 0 3.63 1.23 1.41 1.23 1.41 2.7 0 .41-.06.64-.29 1.12-.91 2.82-.61 1.7-1.37 3.78-.77 2.08-1.56 4.33-.79 2.26-1.43 4.42-.65 2.17-1.06 4.08-.41 1.9-.41 3.25 0 1.76.59 2.9.59 1.14 1.99 1.14.88 0 2.08-.55 1.2-.56 2.61-1.5 1.41-.94 2.9-2.14 1.49-1.2 2.9-2.43 3.28-2.93 6.97-6.68.94-.76 1.82-.76 1.17 0 1.96 1.14.79 1.14.79 2.55 0 1.64-1.11 2.75zm9.73-13.12q2.22-2.29 4.71-4.54 2.49-2.26 5.22-4.04 2.72-1.79 5.71-2.9 2.99-1.12 6.27-1.12 1.93 0 3.98.44 2.06.44 3.73 1.44 1.67.99 2.72 2.58 1.05 1.58 1.05 3.86 0 3.75-1.72 6.8-1.73 3.05-4.49 5.45-2.75 2.4-6.12 4.25-3.37 1.84-6.59 3.13-.82.35-1.52.91-.71.56-1.21 1.17-.49.62-.79 1.23-.29.62-.29 1.03 0 .7.44 1.2.44.5 1.55.5 2.17 0 4.92-.88 2.76-.88 6.42-2.67 3.66-1.79 8.38-4.54 4.72-2.75 10.87-6.5.99-.59 1.87-.59 1.12 0 1.76.82.65.82.65 2.17 0 1.64-1.21 3.72-1.2 2.08-4.01 3.95-3.93 2.41-8.03 4.99-4.1 2.57-8.43 4.71-4.34 2.14-8.91 3.52-4.57 1.37-9.38 1.37-8.32 0-8.32-7.2 0-3.81 1.62-6.71 1.61-2.9 3.92-5.07 2.32-2.17 4.84-3.72 2.51-1.55 4.33-2.78 1.41-.82 2.64-1.76 1.23-.94 2.2-1.93.96-1 1.52-2.03.56-1.02.56-2.08 0-1.7-1.59-1.7-5.86 0-16.4 11.31-2.41 2.58-4.4 5.01-1.99 2.43-3.72 4.78-1.73 2.34-3.31 4.54-1.58 2.2-3.1 4.19-4.57 5.15-8.15 5.15-1.7 0-2.46-.61-.76-.62-.76-2.31 0-.24 0-.47 0-.24.06-.53.11-1.17.99-3.58.88-2.4 2.2-5.44 1.32-3.05 2.93-6.51 1.61-3.46 3.19-6.77 1.59-3.31 2.99-6.21 1.41-2.9 2.35-4.83l18.51-37.79q.35-.77 1.09-1.47.73-.7 1.64-1.26.9-.56 1.93-.88 1.02-.32 2.08-.32 2.64 0 3.66 1 1.03.99 1.03 2.4 0 1.29-.62 2.69-.61 1.41-1.43 2.64-2.46 4.4-4.9 9.35-2.43 4.95-4.83 10.05-2.4 5.09-4.86 10.04-2.46 4.96-4.98 9.35zm102.24 8.03.59 7.97q-2.58 2.93-6.01 5.71-3.43 2.78-7.06 4.95-3.63 2.17-7.15 3.49-3.51 1.31-6.32 1.31-2.82 0-4.58-1.58-1.75-1.58-1.75-5.39 0-2.69.93-6.27-1.52 2.29-3.8 4.63-2.29 2.35-5.22 4.28-2.93 1.93-6.56 3.13-3.63 1.2-7.91 1.2-1.94 0-3.72-.41-1.79-.41-3.14-1.4-1.34-1-2.17-2.67-.82-1.67-.82-4.19 0-.06.24-1.78.23-1.73 1.49-5.45 1.26-3.72 3.9-9.64 2.64-5.92 7.44-14.36 1.23-2.22 2.84-3.19 1.61-.97 3.49-.97.82 0 1.7.21.88.2 1.64.64.76.44 1.23 1.12.47.67.47 1.55 0 .58-.18 1.11-.29 1-1.26 2.61-.96 1.61-2.25 3.69-1.29 2.08-2.73 4.48-1.43 2.4-2.66 4.98-1.23 2.58-2.11 5.25-.88 2.66-1 5.18 0 1.06.59 1.94.58.88 1.93.88 3.81 0 7.27-2.11 3.45-2.11 6.38-5.25 2.93-3.13 5.31-6.74 2.37-3.6 3.95-6.59 1.11-1.99 1.96-4.28.85-2.28 1.85-4.21 1-1.94 2.28-3.23 1.29-1.29 3.23-1.29 2.11 0 3.34 1.35 1.23 1.35 1.23 3.22 0 1.06-.79 2.9-.79 1.85-2 4.22-1.2 2.38-2.6 5.07-1.41 2.7-2.61 5.48-1.2 2.78-1.99 5.45-.79 2.67-.79 4.95 0 2.11 2.57 2.11 1.82 0 4.52-1.05 2.69-1.06 5.65-2.96 2.96-1.91 5.92-4.49 2.96-2.57 5.24-5.56zm1.94-13.6q1.17-2.52 2.93-3.75 1.75-1.23 3.45-1.23 1.41 0 2.52 1.03 1.12 1.02 1.12 3.02 0 .76-.18 1.64-.18.88-.65 1.87 1.29-1.64 3.7-3.37 2.4-1.73 5.3-3.1 2.9-1.38 5.98-2.26 3.07-.88 5.83-.88 3.1 0 5.18 1.5 2.08 1.49 2.08 5.06 0 2.11-.64 4.4-.65 2.28-1.67 4.57-1.03 2.28-2.29 4.48-1.26 2.2-2.49 4.13-1.23 1.94-2.25 3.55-1.03 1.61-1.62 2.66-.76.94-.76 2.17 0 .47.3.82.29.35.93.35.41 0 .94-.08.53-.09 1.29-.62 3.16-1.17 6.47-2.93 3.31-1.76 6.36-3.72 3.05-1.96 5.6-3.93 2.55-1.96 4.25-3.54.46-.41.93-.59.47-.17.88-.17 1 0 1.55.76.56.76.56 1.93 0 1.82-1.14 4.05-1.14 2.22-3.6 4.16-3.34 2.4-6.13 4.39-2.78 1.99-5.68 3.72-2.9 1.73-6.21 3.22-3.31 1.5-7.77 2.79-1.52.47-2.78.7-1.26.23-2.31.23-3.11 0-4.54-1.72-1.44-1.73-1.44-4.84 0-.41.03-.79.03-.38.09-.85.11-1.81.96-3.98.85-2.17 2.05-4.46 1.21-2.28 2.55-4.54 1.35-2.25 2.49-4.27 1.15-2.03 1.91-3.61.76-1.58.76-2.58 0-.87-.5-1.49-.5-.62-1.49-.62-3.75 0-7.12 2.23-3.37 2.23-6.3 5.48-2.93 3.25-5.39 6.88-2.46 3.64-4.34 6.51-1.17 1.93-2.14 4.13-.96 2.2-2.02 4.1-1.05 1.91-2.37 3.17-1.32 1.25-3.31 1.25-2.05 0-3.22-1.28-1.18-1.29-1.18-3.17 0-.99.82-3.22.83-2.23 2.11-5.16 1.29-2.93 2.9-6.3 1.62-3.37 3.23-6.68 1.61-3.31 3.07-6.24 1.47-2.93 2.41-4.98zm69.49 3.58q-2.76 0-5.33 1.4-2.58 1.41-4.57 3.7-2 2.28-3.17 5.12-1.17 2.84-1.17 5.72 0 1.17.15 2.43.14 1.26.67 2.31.53 1.06 1.49 1.76.97.7 2.61.7 1.29 0 3.02-1.14 1.73-1.14 3.57-2.93 1.85-1.79 3.61-3.93 1.75-2.13 3.16-4.19 1.41-2.05 2.29-3.69.87-1.64.87-2.4 0-1.11-.76-2.02-.76-.91-1.87-1.55-1.12-.65-2.37-.97-1.26-.32-2.2-.32zm40.6 15.11q-1.05 1-2.81 2.76-1.76 1.76-4.01 3.81-2.26 2.05-4.81 4.13-2.55 2.08-5.21 3.78-2.67 1.7-5.25 2.78-2.57 1.08-4.86 1.08-2.05 0-3.52-.87-1.46-.88-2.43-2.29-.96-1.41-1.43-3.19-.47-1.79-.47-3.66 0-1.24.17-2.44.18-1.2.59-2.25-1.82 2.46-4.13 5.07-2.31 2.6-4.98 4.74-2.67 2.14-5.57 3.52-2.9 1.37-5.89 1.37-1.52 0-3.54-.61-2.02-.62-3.84-2.02-1.82-1.41-3.05-3.63-1.23-2.23-1.23-5.45 0-2.41.74-5.75.73-3.34 2.22-6.94 1.5-3.6 3.81-7.12 2.32-3.51 5.48-6.3 3.16-2.78 7.21-4.51 4.04-1.73 9.02-1.73 2.58 0 4.51.65 1.94.64 3.28 1.4 1.53.94 2.7 2.05.99-.52 2.05-.99.88-.41 1.85-.73.96-.33 1.67-.33 2.22 0 3.63 1.23 1.4 1.23 1.4 2.7 0 .41-.05.64-.3 1.12-.91 2.82-.62 1.7-1.38 3.78-.76 2.08-1.55 4.33-.79 2.26-1.44 4.42-.64 2.17-1.05 4.08-.41 1.9-.41 3.25 0 1.76.58 2.9.59 1.14 2 1.14.87 0 2.08-.55 1.2-.56 2.6-1.5 1.41-.94 2.9-2.14 1.5-1.2 2.9-2.43 3.28-2.93 6.98-6.68.93-.76 1.81-.76 1.17 0 1.97 1.14.79 1.14.79 2.55 0 1.64-1.12 2.75zm61.47 16.41q-3.87-.41-6.89-.56-3.01-.14-5.65-.14-1.76 0-3.43.06-1.67.06-3.34.08-1.67.03-3.46.09-1.78.06-3.77.06-1.94 0-2.99-1.11-1.06-1.12-1.06-2.76 0-.64.18-1.34.17-.59 1.37-1.26 1.21-.68 3.17-1.29 1.96-.62 4.6-1.09 2.64-.47 5.62-.7 3.05-6.62 6.36-13.39 3.31-6.77 6.65-13.18 3.34-6.42 6.51-12.28 3.16-5.86 5.91-10.69 2.76-4.83 4.95-8.41 2.2-3.57 3.61-5.45-2.99.65-5.8 1.38-2.82.73-6.33 1.43-.7.24-1.41.24-1.7 0-2.63-1.2-.94-1.2-.94-2.9 0-.76 1.38-1.79 1.37-1.03 3.8-2.11 2.44-1.08 5.75-2.11 3.31-1.02 7.2-1.84 3.9-.82 8.21-1.32 4.3-.5 8.7-.5 4.1 0 6.41.85 2.32.85 2.32 2.9 0 1-.59 2.02-.58 1.03-1.55 1.85-.97.82-2.31 1.31-1.35.5-2.82.5-.82 0-1.52-.09-.7-.08-1.52-.08-2.17 0-4.05.08-1.87.09-3.57.21.12.59.12.88 0 .82-.3 1.55-.29.73-.58 1.38-1.82 3.81-4.4 9.17-2.58 5.36-5.51 11.39-2.93 6.04-5.94 12.25-3.02 6.21-5.72 11.72-2.69 5.51-4.86 9.81-2.17 4.31-3.28 6.54 3.28.29 6.03.79 2.76.5 4.72 1.23 1.96.73 3.08 1.73 1.11.99 1.11 2.22 0 .88-.58 1.73-.59.85-1.53 1.53-.94.67-2.11 1.05-1.17.38-2.4.38-1.35 0-2.55-.35-1.2-.35-2.37-.47zm40.37-32.52q3.57 1.88 6.39 4.28 2.81 2.4 4.77 5.07 1.96 2.66 2.99 5.42 1.03 2.75 1.03 5.39 0 3.34-1.91 6-1.9 2.67-4.98 4.52-3.08 1.84-7.03 2.81-3.96.96-8 .96-3.05 0-5.92-.67-2.87-.67-5.24-2.08-2.37-1.41-4.07-3.6-1.7-2.2-2.41-5.25-.11-.47-.11-.76 0-1.58 1.11-2.72 1.11-1.15 2.46-1.15.65 0 1.44.24.79.23 1.2 1.05.76 1.41 2.14 2.52 1.37 1.12 3.07 1.91 1.7.79 3.61 1.23 1.9.44 3.72.44 1.87 0 3.6-.35 1.73-.36 3.05-1.12 1.32-.76 2.08-1.93.76-1.17.76-2.87 0-2.99-1.35-5.51-1.35-2.52-3.48-4.66-2.14-2.14-4.87-3.98-2.72-1.85-5.42-3.55-.29-.17-.88-1.02-.58-.85-.58-1.73 0-.7.35-1.11.94-1.24 2.17-2.52 1.23-1.29 2.63-2.38 1.41-1.08 3.05-1.76 1.64-.67 3.4-.67 1.29 0 2.4.35 1.11.35 1.88.91.76.56 1.2 1.23.44.67.44 1.26 0 .82-.41 1.58-.41.76-1.09 1.47-.67.7-1.52 1.4-.85.71-1.67 1.35zm28.83 16.06q-.65 1.34-1.26 3.13-.62 1.79-.62 3.19 0 .88.35 1.41.36.53 1.35.53 1.23 0 3.08-.73 1.84-.74 3.98-1.94 2.14-1.2 4.46-2.75 2.31-1.55 4.59-3.22 2.29-1.67 4.37-3.34 2.08-1.67 3.72-3.08.47-.41 1.11-.59.65-.17 1.12-.17 1.17 0 1.93.82.76.82.76 2.17 0 1.23-.82 2.75-.82 1.52-2.87 2.99-3.75 3.46-7.56 6.56-3.81 3.11-7.59 5.48-3.77 2.37-7.5 3.78-3.72 1.4-7.23 1.4-2.4 0-4.02-.64-1.61-.64-2.57-1.76-.97-1.11-1.38-2.63-.41-1.53-.41-3.23 0-2.87.85-5.89.85-3.01 2.02-5.53 2.05-4.57 4.16-9.08 2.11-4.52 3.87-8.27l17.75-37.79q1.06-2.28 2.84-3.22 1.79-.94 3.61-.94 1.81 0 3.31 1 1.49.99 1.49 3.22 0 1.05-.5 2.23-.49 1.17-1.26 2.52-1.46 2.75-3.48 6.73-2.02 3.99-4.34 8.68-2.31 4.68-4.74 9.75-2.44 5.07-4.75 9.87-2.31 4.81-4.34 9.12-2.02 4.3-3.48 7.47zm44.24-15.06q-2.76 0-5.34 1.4-2.57 1.41-4.57 3.7-1.99 2.28-3.16 5.12-1.17 2.84-1.17 5.72 0 1.17.14 2.43.15 1.26.68 2.31.53 1.06 1.49 1.76.97.7 2.61.7 1.29 0 3.02-1.14 1.73-1.14 3.57-2.93 1.85-1.79 3.6-3.93 1.76-2.13 3.17-4.19 1.4-2.05 2.28-3.69.88-1.64.88-2.4 0-1.11-.76-2.02-.76-.91-1.87-1.55-1.12-.65-2.38-.97-1.26-.32-2.19-.32zm40.6 15.11q-1.05 1-2.81 2.76-1.76 1.76-4.02 3.81-2.25 2.05-4.8 4.13-2.55 2.08-5.21 3.78-2.67 1.7-5.25 2.78-2.58 1.08-4.86 1.08-2.05 0-3.52-.87-1.46-.88-2.43-2.29-.97-1.41-1.43-3.19-.47-1.79-.47-3.66 0-1.24.17-2.44.18-1.2.59-2.25-1.82 2.46-4.13 5.07-2.32 2.6-4.98 4.74-2.67 2.14-5.57 3.52-2.9 1.37-5.89 1.37-1.52 0-3.54-.61-2.02-.62-3.84-2.02-1.82-1.41-3.05-3.63-1.23-2.23-1.23-5.45 0-2.41.73-5.75.74-3.34 2.23-6.94 1.49-3.6 3.81-7.12 2.31-3.51 5.48-6.3 3.16-2.78 7.2-4.51 4.05-1.73 9.03-1.73 2.58 0 4.51.65 1.93.64 3.28 1.4 1.52.94 2.7 2.05.99-.52 2.05-.99.88-.41 1.84-.73.97-.33 1.67-.33 2.23 0 3.64 1.23 1.4 1.23 1.4 2.7 0 .41-.06.64-.29 1.12-.9 2.82-.62 1.7-1.38 3.78-.76 2.08-1.55 4.33-.8 2.26-1.44 4.42-.64 2.17-1.05 4.08-.41 1.9-.41 3.25 0 1.76.58 2.9.59 1.14 1.99 1.14.88 0 2.08-.55 1.2-.56 2.61-1.5 1.41-.94 2.9-2.14 1.5-1.2 2.9-2.43 3.28-2.93 6.97-6.68.94-.76 1.82-.76 1.17 0 1.96 1.14.79 1.14.79 2.55 0 1.64-1.11 2.75zm3.28-18.69q1.17-2.52 2.93-3.75 1.76-1.23 3.46-1.23 1.41 0 2.52 1.03 1.11 1.02 1.11 3.02 0 .76-.17 1.64-.18.88-.65 1.87 1.29-1.64 3.69-3.37 2.41-1.73 5.31-3.1 2.9-1.38 5.97-2.26 3.08-.88 5.83-.88 3.11 0 5.19 1.5 2.08 1.49 2.08 5.06 0 2.11-.65 4.4-.64 2.28-1.67 4.57-1.02 2.28-2.28 4.48-1.26 2.2-2.49 4.13-1.23 1.94-2.26 3.55-1.02 1.61-1.61 2.66-.76.94-.76 2.17 0 .47.29.82.3.35.94.35.41 0 .94-.08.52-.09 1.29-.62 3.16-1.17 6.47-2.93 3.31-1.76 6.36-3.72 3.05-1.96 5.59-3.93 2.55-1.96 4.25-3.54.47-.41.94-.59.47-.17.88-.17.99 0 1.55.76.56.76.56 1.93 0 1.82-1.14 4.05-1.15 2.22-3.61 4.16-3.34 2.4-6.12 4.39-2.78 1.99-5.68 3.72-2.91 1.73-6.22 3.22-3.31 1.5-7.76 2.79-1.52.47-2.78.7-1.26.23-2.32.23-3.1 0-4.54-1.72-1.43-1.73-1.43-4.84 0-.41.03-.79.02-.38.08-.85.12-1.81.97-3.98.85-2.17 2.05-4.46 1.2-2.28 2.55-4.54 1.35-2.25 2.49-4.27 1.14-2.03 1.9-3.61.77-1.58.77-2.58 0-.87-.5-1.49-.5-.62-1.5-.62-3.75 0-7.12 2.23-3.36 2.23-6.29 5.48-2.93 3.25-5.39 6.88-2.47 3.64-4.34 6.51-1.17 1.93-2.14 4.13-.97 2.2-2.02 4.1-1.06 1.91-2.37 3.17-1.32 1.25-3.31 1.25-2.06 0-3.23-1.28-1.17-1.29-1.17-3.17 0-.99.82-3.22.82-2.23 2.11-5.16 1.29-2.93 2.9-6.3 1.61-3.37 3.22-6.68 1.62-3.31 3.08-6.24 1.46-2.93 2.4-4.98zm82.03 23.68q-.05.11-.05.29 0 .17-.06.29 0 1.06.52 2.2.53 1.14 1.7 1.14.47 0 .71-.12 3.34-.99 6.76-3.16 3.43-2.17 6.6-4.75 3.16-2.57 5.83-5.27 2.66-2.69 4.42-4.8.82-1 1.82-1 .87 0 1.55.82.67.82.67 2.23 0 1.11-.61 2.63-.62 1.53-2.02 3.28-3.46 3.81-7.09 7.33-3.64 3.51-7.33 6.24-3.69 2.72-7.35 4.36-3.66 1.64-7.18 1.64-4.28 0-6.74-2.43-2.46-2.43-2.46-7.29 0-.29 0-.62 0-.32.06-.61-1.35 2.46-3.46 4.48-2.11 2.02-4.63 3.46-2.52 1.43-5.21 2.22-2.7.79-5.22.79-2.16 0-3.98-.58-1.82-.59-3.14-1.88-1.31-1.29-2.05-3.28-.73-1.99-.73-4.8 0-4.92 1.53-9.35 1.52-4.42 4.04-8.14 2.52-3.72 5.77-6.68 3.25-2.96 6.74-5.04 3.48-2.08 6.94-3.19 3.46-1.12 6.33-1.12 3.34 0 5.74 1.12 1.17.58 2.17 1.58.23-.53.47-1 .58-1.4 1.05-2.43.47-1.03.65-1.49.17-.53.99-2.47.82-1.93 1.91-4.54 1.08-2.6 2.34-5.59 1.26-2.99 2.32-5.63 1.05-2.63 1.81-4.54.76-1.9.94-2.43.41-1.46 1.11-2.84.71-1.38 1.67-2.4.97-1.03 2.26-1.64 1.29-.62 2.93-.62 2.23 0 3.69.97 1.47.96 1.47 3.72 0 1.11-.3 2.28-.29 1.17-.67 2.29-.38 1.11-.82 2.2-.44 1.08-.79 2.02-2.93 5.86-6.16 12.74-3.22 6.89-6.38 13.86-3.17 6.97-6.04 13.59-2.87 6.62-5.04 11.96zm-1.75-22.91q-3.52.11-7.39 1.52-4.45 1.52-8.14 4.54-3.69 3.02-6.24 7.41-2.55 4.4-2.9 10.08 0 2.34 1.99 2.34 2.46 0 4.69-1.02 2.22-1.03 4.25-2.76 2.02-1.72 3.77-3.95 1.76-2.23 3.26-4.63 1.49-2.4 2.69-4.77 1.2-2.38 2.08-4.43.3-.64.82-1.82.47-1.11 1.12-2.51z" fill="#fff" transform="translate(-100.039696 119.675003)"/></g></svg>