<?xml version="1.0" encoding="utf-8"?>
<!-- Generator: Adobe Illustrator 23.0.3, SVG Export Plug-In . SVG Version: 6.00 Build 0)  -->
<svg version="1.1" id="logo-img" xmlns="http://www.w3.org/2000/svg" xmlns:xlink="http://www.w3.org/1999/xlink" x="0px"
	 y="0px" viewBox="0 0 370.13 82.91" style="enable-background:new 0 0 370.13 82.91;" xml:space="preserve">
<style type="text/css">
	.logo-img{fill:#FFFFFF;}
</style>
<g>
	<g>
		<path class="logo-img" d="M210.33,72.43l0.05,0.11c0.2,0.36,0.56,0.48,0.91,0.6c0.82,0.26,1.69,0.45,2.49,0.79
			c0.33,0.14,0.65,0.31,0.95,0.51c0.42,0.29,0.79,0.67,1.02,1.13c0.43,0.84,0.4,1.88-0.03,2.73c-0.42,0.84-1.19,1.49-2.06,1.86
			c-0.87,0.37-1.84,0.46-2.77,0.4c-1.53-0.11-3.05-0.67-4.17-1.72l2.12-1.97c0.81,0.8,1.95,1.27,3.08,1.24
			c0.62-0.02,1.36-0.29,1.25-1.02c-0.02-0.06-0.03-0.11-0.05-0.14c-0.22-0.48-0.67-0.67-1.1-0.81c-0.68-0.23-1.39-0.37-2.08-0.6
			s-1.35-0.56-1.83-1.1c-0.51-0.54-0.77-1.29-0.77-2.03c0.02-0.74,0.31-1.49,0.82-2.03c0.54-0.62,1.32-0.99,2.12-1.21
			c0.99-0.28,2.04-0.29,3.05-0.09c1.04,0.2,2.03,0.65,2.87,1.32l-0.88,0.85c-0.39,0.39-0.81,0.77-1.21,1.16
			c-0.73-0.82-1.92-1.21-2.99-0.94C210.68,71.58,210.17,71.89,210.33,72.43z"/>
		<path class="logo-img" d="M228.11,69.35h8.47v2.65h-5.84v1.44h4.57v2.63h-4.57v1.44h5.84v2.63h-8.47V69.35z"/>
		<path class="logo-img" d="M256.67,75.56l1.86,4.62h-2.9l-1.61-4.12h-2.65v4.12h-2.63V69.35h6.18c1.84,0,3.36,1.5,3.36,3.35
			C258.28,73.9,257.63,74.97,256.67,75.56z M255.63,72.69c0-0.39-0.33-0.71-0.71-0.71h-3.55v1.44h3.55
			C255.31,73.42,255.63,73.09,255.63,72.69z"/>
		<path class="logo-img" d="M277.88,78.84h-4.41l-0.51,1.33h-2.85l4.17-10.83h2.79l4.18,10.83h-2.85L277.88,78.84z M276.88,76.21
			l-1.21-3.13l-1.19,3.13H276.88z"/>
		<path class="logo-img" d="M297.38,73.88h4.83v4.32l-0.37,0.39c-0.99,1.02-2.65,1.69-4.24,1.69c-3.05,0-5.53-2.48-5.53-5.53
			s2.48-5.53,5.53-5.53c1.61,0,3.14,0.71,4.2,1.94l-2,1.72c-0.56-0.65-1.36-1.02-2.2-1.02c-1.6,0-2.9,1.3-2.9,2.9s1.3,2.88,2.9,2.88
			c0.68,0,1.44-0.23,1.98-0.57v-0.54h-2.2V73.88z"/>
		<path class="logo-img" d="M321.23,78.84h-4.41l-0.51,1.33h-2.85l4.17-10.83h2.79l4.18,10.83h-2.85L321.23,78.84z M320.23,76.21
			l-1.21-3.13l-1.19,3.13H320.23z"/>
		<path class="logo-img" d="M341.31,73.78l4.18,6.4h-3.14l-2.82-4.3l-0.74,0.87v3.44h-2.63V69.38h2.63v3.28l2.82-3.33h3.45L341.31,73.78z
			"/>
		<path class="logo-img" d="M357.3,69.35h2.63v10.79h-2.63V69.35z"/>
	</g>
	<g>
		<g>
			<g>
				<g>
					<g>
						<g>
							<path class="logo-img" d="M109.04,17.01c-1.13,0-2.06-0.91-2.06-2.04c-0.01-1.13,0.91-2.05,2.04-2.06
								c1.13-0.01,2.05,0.91,2.06,2.04C111.09,16.08,110.17,17,109.04,17.01z"/>
						</g>
					</g>
				</g>
			</g>
		</g>
		<path class="logo-img" d="M97.73,0c-4.7,0.02-8.49,3.84-8.48,8.54c0.02,4.7,3.84,8.49,8.54,8.48c4.7-0.02,8.49-3.84,8.48-8.54
			C106.25,3.78,102.43-0.02,97.73,0z M97.78,13.31c-2.65,0.01-4.81-2.13-4.82-4.78c-0.01-2.65,2.13-4.81,4.78-4.82
			c2.65-0.01,4.81,2.13,4.82,4.78C102.57,11.14,100.43,13.3,97.78,13.31z"/>
		<g>
			<path class="logo-img" d="M150.3,4.09c-0.03-0.92-0.08-1.84-0.12-2.79c0.18,0.03,0.35,0.06,0.51,0.08c0.17,0.03,0.33,0.03,0.49,0.03
				c0.17,0,0.33-0.01,0.5-0.03c0.16-0.02,0.33-0.05,0.51-0.08c-0.04,0.95-0.07,1.88-0.1,2.79c-0.03,0.92-0.05,1.85-0.05,2.79v3.72
				c0,0.95,0.02,1.89,0.05,2.81c0.03,0.92,0.06,1.83,0.1,2.72c-0.32-0.04-0.65-0.06-1.01-0.06c-0.35,0-0.69,0.02-1,0.06
				c0.04-0.89,0.08-1.8,0.12-2.72c0.04-0.92,0.05-1.86,0.05-2.81V6.88C150.36,5.94,150.34,5.01,150.3,4.09z"/>
			<path class="logo-img" d="M158.56,14.1c0.19,0.26,0.42,0.51,0.69,0.72c0.27,0.22,0.58,0.39,0.94,0.53c0.36,0.14,0.76,0.2,1.21,0.2
				c0.46,0,0.87-0.08,1.24-0.25c0.36-0.16,0.68-0.39,0.93-0.67c0.26-0.28,0.46-0.61,0.59-0.99c0.14-0.39,0.21-0.79,0.21-1.22
				c0-0.67-0.16-1.19-0.49-1.58c-0.32-0.39-0.73-0.72-1.21-0.97c-0.49-0.26-1.01-0.5-1.57-0.71c-0.56-0.22-1.09-0.48-1.56-0.81
				c-0.49-0.32-0.89-0.74-1.22-1.24c-0.32-0.51-0.49-1.18-0.49-2.03c0-0.6,0.1-1.15,0.31-1.65c0.2-0.5,0.5-0.93,0.9-1.28
				c0.39-0.36,0.87-0.64,1.42-0.84c0.55-0.2,1.17-0.3,1.86-0.3c0.67,0,1.24,0.08,1.72,0.25c0.48,0.17,0.93,0.42,1.35,0.77
				c-0.12,0.24-0.23,0.5-0.31,0.78c-0.08,0.27-0.16,0.62-0.25,1.04h-0.25c-0.07-0.2-0.16-0.42-0.28-0.66
				c-0.11-0.24-0.28-0.46-0.48-0.66c-0.2-0.2-0.44-0.37-0.71-0.51c-0.28-0.13-0.61-0.2-1-0.2c-0.39,0-0.74,0.06-1.06,0.19
				c-0.32,0.13-0.61,0.31-0.85,0.55c-0.24,0.24-0.43,0.52-0.56,0.85c-0.13,0.33-0.2,0.69-0.2,1.08c0,0.68,0.16,1.21,0.49,1.59
				c0.32,0.39,0.73,0.71,1.21,0.98c0.49,0.27,1.01,0.5,1.57,0.71c0.56,0.21,1.08,0.46,1.57,0.76c0.48,0.3,0.89,0.69,1.22,1.16
				c0.32,0.48,0.49,1.11,0.49,1.9c0,0.66-0.11,1.29-0.34,1.88c-0.23,0.59-0.56,1.11-1,1.54c-0.44,0.44-0.97,0.77-1.6,1.01
				c-0.63,0.24-1.34,0.35-2.15,0.35c-0.86,0-1.56-0.12-2.09-0.35c-0.53-0.23-0.98-0.5-1.34-0.8c0.13-0.33,0.21-0.63,0.26-0.9
				c0.05-0.27,0.09-0.61,0.13-1.03h0.25C158.22,13.57,158.38,13.83,158.56,14.1z"/>
			<path class="logo-img" d="M171.38,4.09c-0.04-0.92-0.08-1.84-0.12-2.79c0.18,0.03,0.35,0.06,0.52,0.08c0.16,0.03,0.33,0.03,0.5,0.03
				c0.16,0,0.33-0.01,0.49-0.03c0.16-0.02,0.34-0.05,0.51-0.08c-0.04,0.95-0.07,1.88-0.1,2.79c-0.03,0.92-0.04,1.85-0.04,2.79v3.72
				c0,0.95,0.02,1.89,0.04,2.81c0.03,0.92,0.06,1.83,0.1,2.72c-0.32-0.04-0.65-0.06-1.01-0.06c-0.36,0-0.7,0.02-1.01,0.06
				c0.05-0.89,0.08-1.8,0.12-2.72c0.03-0.92,0.05-1.86,0.05-2.81V6.88C171.43,5.94,171.41,5.01,171.38,4.09z"/>
			<path class="logo-img" d="M179.61,4.09c-0.03-0.92-0.07-1.84-0.12-2.79c0.4,0.03,0.79,0.06,1.18,0.08c0.38,0.03,0.78,0.03,1.18,0.03
				c0.4,0,0.79-0.02,1.18-0.06c0.39-0.04,0.78-0.06,1.18-0.06c0.58,0,1.13,0.06,1.65,0.17c0.52,0.12,0.98,0.31,1.37,0.57
				c0.39,0.27,0.7,0.62,0.93,1.05c0.23,0.44,0.34,0.97,0.34,1.62c0,0.69-0.15,1.29-0.44,1.79c-0.3,0.5-0.66,0.9-1.09,1.23
				c-0.42,0.33-0.88,0.58-1.37,0.76c-0.49,0.18-0.93,0.29-1.34,0.35c0.17,0.22,0.4,0.52,0.68,0.91c0.29,0.39,0.61,0.82,0.97,1.29
				c0.36,0.47,0.73,0.96,1.12,1.47c0.39,0.51,0.76,1,1.11,1.47c0.36,0.47,0.7,0.89,1.02,1.28c0.31,0.39,0.57,0.69,0.76,0.89
				c-0.21-0.04-0.41-0.06-0.62-0.06c-0.21,0-0.41,0-0.62,0c-0.2,0-0.39,0-0.6,0c-0.21,0-0.4,0.02-0.6,0.06
				c-0.21-0.3-0.52-0.75-0.94-1.36c-0.42-0.6-0.89-1.25-1.4-1.94c-0.51-0.69-1.04-1.38-1.57-2.06c-0.53-0.68-1.02-1.26-1.46-1.74
				h-0.79v1.57c0,0.95,0.01,1.89,0.05,2.81c0.04,0.92,0.07,1.83,0.11,2.72c-0.32-0.04-0.65-0.06-1.01-0.06
				c-0.36,0-0.69,0.02-1.01,0.06c0.05-0.89,0.09-1.8,0.12-2.72c0.04-0.92,0.06-1.86,0.06-2.81l0-3.72
				C179.67,5.94,179.65,5.01,179.61,4.09z M181.99,8.21c0.23,0.01,0.48,0.02,0.75,0.02c0.43,0,0.87-0.05,1.34-0.15
				c0.46-0.1,0.89-0.27,1.27-0.53c0.39-0.25,0.71-0.59,0.96-1.01c0.25-0.43,0.38-0.96,0.38-1.61c0-0.56-0.1-1.03-0.3-1.39
				c-0.2-0.36-0.45-0.66-0.77-0.87c-0.32-0.22-0.66-0.36-1.04-0.44c-0.37-0.08-0.74-0.12-1.09-0.12c-0.48,0-0.88,0.01-1.2,0.03
				c-0.32,0.02-0.59,0.05-0.81,0.08c-0.03,0.79-0.05,1.57-0.08,2.35c-0.03,0.77-0.04,1.55-0.04,2.33v1.23
				C181.55,8.17,181.76,8.19,181.99,8.21z"/>
			<g>
				<path class="logo-img" d="M118.68,6.87c0-1.85-0.09-3.72-0.17-5.57c0.36,0.06,0.71,0.11,1.05,0.11c0.35,0,0.69-0.04,1.05-0.11
					c-0.09,1.85-0.17,3.72-0.17,5.57c0,3.61,0.04,6.15,0.07,8.26c2.02,0,4.79,0,6.94-0.28c-0.06,0.22-0.11,0.43-0.11,0.64
					c0,0.21,0.04,0.43,0.11,0.65c-1.31-0.07-3.35-0.11-4.67-0.11c-1.33,0-2.94,0.04-4.27,0.1c0.08-1.84,0.17-3.71,0.17-5.56V6.87z"
					/>
			</g>
			<path class="logo-img" d="M137.45,1c4.37,0,7.42,2.83,7.42,7.72c0,4.9-3.05,7.72-7.41,7.72c-4.35,0-7.4-2.83-7.4-7.72
				C130.06,3.82,133.1,1,137.45,1z M137.45,1.8c-3.08,0-5.46,2.14-5.46,6.92c0,4.79,2.38,6.92,5.46,6.92c3.1,0,5.48-2.13,5.48-6.92
				C142.93,3.93,140.55,1.8,137.45,1.8z"/>
		</g>
	</g>
	<g>
		<path class="logo-img" d="M64.99,30.11c1.35,0,2.46-0.51,3.35-1.53s1.33-2.31,1.33-3.87c0-1.11-0.31-1.97-0.92-2.57
			c-0.61-0.6-1.48-0.91-2.6-0.91c-1.4,0-2.55,0.5-3.46,1.51c-0.91,1.01-1.37,2.28-1.37,3.82c0,1.13,0.32,2.01,0.95,2.63
			C62.91,29.8,63.81,30.11,64.99,30.11z"/>
		<path class="logo-img" d="M117.19,30.11c1.35,0,2.46-0.51,3.35-1.53s1.33-2.31,1.33-3.87c0-1.11-0.31-1.97-0.92-2.57
			c-0.61-0.6-1.48-0.91-2.6-0.91c-1.4,0-2.55,0.5-3.46,1.51c-0.91,1.01-1.37,2.28-1.37,3.82c0,1.13,0.32,2.01,0.95,2.63
			C115.11,29.8,116.02,30.11,117.19,30.11z"/>
		<path class="logo-img" d="M290.89,30.11c1.35,0,2.46-0.51,3.35-1.53c0.88-1.02,1.33-2.31,1.33-3.87c0-1.11-0.31-1.97-0.92-2.57
			s-1.48-0.91-2.6-0.91c-1.4,0-2.55,0.5-3.46,1.51c-0.91,1.01-1.37,2.28-1.37,3.82c0,1.13,0.32,2.01,0.95,2.63
			C288.81,29.8,289.72,30.11,290.89,30.11z"/>
		<path class="logo-img" d="M369.31,46.52c-0.02,0.01-0.04,0.02-0.06,0.03c0,0-1.51,1.24-2.97,2.35c-0.23,0.17-0.47,0.36-0.7,0.53
			c-0.23,0.17-0.46,0.34-0.67,0.48c-0.56,0.39-1.11,0.74-1.67,1.09c-0.77,0.49-1.54,0.94-2.31,1.37c-0.01,0-0.02,0.01-0.02,0.01
			c-0.45,0.25-0.66,0.14-0.58-0.21c0.45-0.89,0.8-1.85,1.1-2.85c0.09-0.26,0.17-0.53,0.25-0.8c0.06-0.26,0.14-0.51,0.19-0.78
			c0.4-1.93,0.6-4.29,0.6-7.09c0-0.96-0.03-2.08-0.09-3.36c-0.01-0.19-0.02-0.39-0.03-0.59c-0.05-0.92-0.11-2-0.18-3.24
			c-0.03-0.55,0.2-1.3,0.53-1.79c0.4-0.48,0.72-0.95,0.97-1.42c0.08-0.14,0.16-0.28,0.22-0.42c0.37-0.82,0.56-1.67,0.56-2.55
			c0-1.18-0.29-2.1-0.88-2.76c-0.59-0.66-1.39-0.98-2.41-0.98c-1.45,0-2.6,0.73-3.44,2.19c-0.09,0.16-0.18,0.34-0.26,0.55
			c-0.62,1.31-1.04,3.03-1.22,5.22c-0.15,0.55-0.43,1.19-0.72,1.58c0,0-2.5,3.46-4.64,5.94c-0.27,0.31-0.53,0.6-0.78,0.87
			c-0.24,0.26-0.52,0.54-0.81,0.83c-1.93,1.94-4.64,4.32-5.62,5.16v-0.04c-0.25,0.21-0.49,0.41-0.74,0.61
			c-0.05,0.03-0.1,0.04-0.16,0.08c0,0-4.51,3.47-7.46,5.21c-0.29,0.16-0.58,0.34-0.87,0.49c-2.83,1.46-5.27,2.19-7.32,2.19
			c-1.2,0-2.15-0.26-2.86-0.77c-0.17-0.12-0.32-0.26-0.46-0.41c-0.03-0.04-0.05-0.07-0.08-0.1c-0.09-0.11-0.17-0.21-0.22-0.3
			c-0.05-0.08-0.08-0.17-0.13-0.26c-0.15-0.49,0.07-0.98,0.5-1.22c5.14-0.86,9.29-2.42,12.41-4.69c3.29-2.39,4.94-5.12,4.94-8.16
			c0-1.97-0.66-3.48-1.98-4.54s-3.22-1.59-5.69-1.59c-4.96,0-9.3,1.77-13,5.31c-3,2.87-4.76,6.2-5.33,9.99
			c-0.99,0.76-2.32,1.75-3.44,2.52c-0.28,0.19-0.54,0.36-0.78,0.52c-2.09,1.34-3.38,2-3.85,2c-0.1,0-0.17-0.06-0.22-0.19
			c-0.05-0.13-0.08-0.34-0.08-0.64c0-0.3,0.03-0.61,0.09-0.93c0.06-0.28,0.15-0.56,0.25-0.84c0.13-0.35,0.29-0.78,0.43-1.15l0,0
			l3.41-8.88l4.28-11.15c0.22-0.58,0.92-1.06,1.54-1.06h3.27c0.62,0,1.32-0.48,1.54-1.06l0.55-1.45l0.55-1.45
			c0.22-0.58-0.11-1.06-0.73-1.06h-3.23c-0.62,0-0.94-0.47-0.71-1.05l1.04-2.48c0.04-0.09,0.09-0.21,0.13-0.32
			c0.1-0.24,0.2-0.47,0.31-0.73c1.77-4.21,2.66-6.92,2.66-8.13c0-1.03-0.23-1.85-0.69-2.44c-0.46-0.59-1.09-0.89-1.89-0.89
			c-1.42,0-2.8,1.2-4.13,3.59c-1.26,2.26-2.7,6.09-4.33,11.47c-0.24,0.54-0.84,0.97-1.43,0.97h-3.61c-0.62,0-1.32,0.48-1.54,1.06
			l-1.13,2.91v0c-0.23,0.58,0.1,1.06,0.72,1.06h3.64c0.62,0,0.94,0.47,0.71,1.05l-1.49,3.69l-1.49,3.69
			c-0.23,0.58-0.75,1.44-1.16,1.91c0,0-0.08,0.09-0.32,0.33c-0.12,0.12-0.23,0.23-0.37,0.36c-0.03,0.03-0.07,0.07-0.1,0.1
			c-0.09,0.09-0.19,0.18-0.29,0.28c-0.09,0.09-0.2,0.19-0.3,0.29c-0.07,0.07-0.14,0.13-0.22,0.2c-0.19,0.18-0.4,0.37-0.64,0.59
			c-0.2,0.18-0.43,0.39-0.68,0.62c-1.72,1.55-4.48,3.97-5.48,4.84v-0.02c-0.27,0.23-0.53,0.44-0.8,0.66
			c-0.03,0.02-0.06,0.02-0.09,0.05c0,0-2.91,2.3-5.14,3.79c-0.29,0.19-0.56,0.37-0.82,0.53c-2.25,1.39-3.62,2.08-4.12,2.08
			c-0.1,0-0.17-0.07-0.22-0.21c-0.02-0.05-0.03-0.13-0.04-0.2c0.01-0.3,0.19-0.92,0.43-1.46l0,0l0-0.01
			c0.01-0.03,0.03-0.07,0.05-0.1l0.42-0.93l0.44-0.98l2.08-4.64l4.65-10.39c0.25-0.57-0.05-1.03-0.67-1.03h-4.69
			c-0.62,0-1.34,0.46-1.6,1.03l-0.52,1.16l-0.52,1.16c-0.26,0.57-0.79,1.42-1.19,1.9c0,0-0.46,0.55-2.38,2.32
			c-0.2,0.19-0.44,0.41-0.7,0.64c-1.77,1.59-4.51,3.97-5.4,4.74v-0.1c-0.27,0.23-0.54,0.44-0.82,0.66
			c-0.03,0.02-0.05,0.02-0.08,0.04c0,0-2.93,2.29-5.16,3.78c-0.29,0.19-0.56,0.37-0.82,0.53c-2.23,1.4-3.57,2.1-4.02,2.1
			c-0.13,0-0.22-0.07-0.28-0.21c-0.06-0.14-0.09-0.35-0.09-0.62c0-0.02,0.12-0.28,0.36-0.76c0.24-0.48,0.24-0.48,0.24-0.48
			c0.21-0.46,0.6-1.31,0.86-1.87l3.5-7.5l3.5-7.5c0.26-0.56-0.03-1.03-0.65-1.03h-4.47c-0.55,0-1.26,0.31-1.7,0.72
			c-0.05,0.05-0.12,0.1-0.17,0.15c0,0-7.59,9.04-11.88,12.76c-4.29,3.72-7.08,5.58-8.38,5.58c-0.1,0-0.17-0.03-0.22-0.08
			c-0.05-0.05-0.08-0.13-0.08-0.23c0-0.15,0.03-0.33,0.09-0.55c0.05-0.18,0.14-0.39,0.24-0.6c0.15-0.32,0.35-0.74,0.53-1.11
			l7.23-15.02l0.29-0.6c0.27-0.56-0.02-1.02-0.64-1.02h-4.62c-0.62,0-1.34,0.46-1.6,1.03l-0.52,1.16l-0.52,1.16
			c-0.26,0.57-0.79,1.42-1.19,1.9c0,0-0.46,0.55-2.38,2.32c-0.21,0.19-0.45,0.41-0.7,0.64c-0.91,0.82-2.08,1.85-3.12,2.76
			c-0.26-1.59-0.85-3.07-1.79-4.44c-0.17-0.24-0.37-0.47-0.55-0.7c-1.26-1.58-2.93-2.94-5.06-4.06c-0.65-0.32-1.49-0.73-2.51-1.23
			l-0.11-0.05c0,0,0,0,0,0c-0.32-0.16-0.66-0.32-1.02-0.5c-5.66-2.7-8.49-5.46-8.49-8.28c0-1.64,0.65-3.24,1.95-4.8
			c1.3-1.56,4.78-3.87,4.78-3.87c0.52-0.34,1.4-0.85,1.96-1.13c0,0,0.99-0.49,2.18-0.98c0.39-0.15,0.77-0.32,1.17-0.46
			c0.25-0.09,0.49-0.17,0.73-0.25c1.77-0.55,3.24-0.83,4.42-0.83c0.72,0,1.34,0.16,1.85,0.49c0.51,0.33,0.77,0.71,0.77,1.13
			c0,1.08-1.04,2.25-3.13,3.5c-1.9,1.14-4.39,2.15-7.45,3.02c-0.52,0.26-0.99,0.82-1.1,1.36l-0.47,2.33l-0.47,2.33
			c-0.03,0.14-0.02,0.28,0,0.4c0,0.01,0.01,0.02,0.01,0.03c0.07,0.32,0.3,0.55,0.63,0.58c0.08,0.01,0.16,0,0.25-0.01
			c0,0,0.05-0.01,0.13-0.03c5.13-0.6,9.46-2.21,12.96-4.83c3.78-2.83,5.67-6,5.67-9.51c0-2.29-0.89-4.13-2.66-5.52
			s-4.13-2.08-7.07-2.08c-2.35,0-4.87,0.46-7.58,1.38c-2.71,0.92-5.25,2.19-7.62,3.8c-2.89,1.97-5.19,4.27-6.89,6.9
			c-1.7,2.63-2.54,5.21-2.54,7.73c0,2.55,0.78,4.85,2.34,6.92c1.56,2.07,3.9,3.92,7.02,5.56c0.29,0.15,0.69,0.35,1.16,0.6
			c0.25,0.13,0.52,0.27,0.82,0.42c5.59,2.85,8.38,5.34,8.38,7.48c0,2.22-1.48,4.03-4.43,5.42c-2.96,1.4-6.82,2.1-11.58,2.1
			c-3.14,0-5.63-0.3-7.46-0.89c-1.83-0.59-2.75-1.38-2.75-2.36c0-0.81,0.72-1.5,2.15-2.08c1.43-0.58,3.27-0.87,5.52-0.87
			c0.87,0,1.79,0.04,2.75,0.11c0.41,0.03,0.83,0.08,1.26,0.13c0.21,0.02,0.42,0.05,0.63,0.08l0,0h0c0.62,0.09,1.23-0.33,1.35-0.94
			l0.67-3.22l0.25-1.18c0.13-0.61-0.27-1.21-0.88-1.32c0,0-0.41-0.08-0.96-0.17c-0.39-0.06-0.85-0.14-1.29-0.19
			c-1.05-0.13-2.02-0.19-2.92-0.19c-4.86,0-8.81,0.93-11.82,2.8c-3.02,1.87-4.53,4.26-4.53,7.18c0,3.1,1.52,5.54,4.55,7.31
			c3.03,1.78,7.24,2.67,12.63,2.67c7.53,0,13.48-1.34,17.83-4.03c2.05-1.27,3.6-2.75,4.69-4.44c0.08-0.06,0.16-0.12,0.25-0.19
			c0.36-0.28,0.7-0.55,0.94-0.75c0.21-0.17,0.34-0.29,0.35-0.29l0,0c0.47-0.4,0.67-0.26,0.43,0.31l-0.52,1.26l-0.52,1.26l0,0
			l-0.43,1.05c-0.1,0.26-0.19,0.51-0.26,0.76c-0.03,0.07-0.06,0.16-0.08,0.22c0,0,0,0-0.09,0.44c-0.09,0.44-0.13,0.88-0.13,1.3
			c0,1.06,0.22,1.84,0.65,2.34s1.09,0.76,1.96,0.76c2.02,0,4.92-1.22,8.7-3.65c3.58-2.31,7.19-5.31,10.81-8.99
			c0.27-0.16,0.35,0,0.17,0.46l-0.74,1.86l-1.16,2.91c-0.14,0.35-0.26,0.7-0.38,1.05c0,0,0,0.01-0.01,0.01c0,0,0,0.01,0,0.01
			c-0.01,0.03-0.07,0.2-0.16,0.45c-0.1,0.31-0.23,0.73-0.35,1.19c-0.22,0.88-0.34,1.55-0.34,2c0,0.81,0.31,1.46,0.92,1.95
			s1.43,0.74,2.45,0.74c1.87,0,4.22-0.69,7.04-2.08c0.26-0.13,0.54-0.28,0.84-0.44c2.28-1.19,4.76-2.76,7.47-4.74v0.01
			c0.31-0.19,0.62-0.4,0.94-0.62c0,0,0,0,0.01,0c0,0,0.03-0.02,0.06-0.04c0.12-0.08,0.46-0.32,1-0.73c0.36-0.28,0.7-0.55,0.93-0.75
			c0.2-0.16,0.33-0.27,0.34-0.28c0,0,0.01-0.01,0.01-0.01c0.47-0.4,0.68-0.26,0.45,0.32l-0.1,0.25l-0.1,0.25l-0.41,1.06
			c-0.07,0.19-0.12,0.38-0.19,0.57c-0.07,0.18-0.13,0.36-0.18,0.51c0,0-0.06,0.18-0.15,0.47c-0.09,0.31-0.21,0.73-0.31,1.2
			c-0.2,0.89-0.3,1.64-0.3,2.25c0,0.86,0.31,1.54,0.94,2.06c0.62,0.52,1.48,0.78,2.58,0.78c1.85,0,4.15-0.68,6.92-2.04
			c2.67-1.31,5.73-3.25,9.17-5.81c0.02-0.02,0.05-0.03,0.07-0.05h0l0,0c0,0,0.23-0.16,0.57-0.42c0.32-0.24,0.74-0.56,1.21-0.94
			c0.14-0.12,0.29-0.24,0.44-0.37c0.14-0.12,0.29-0.24,0.43-0.37c0.55-0.47,1.13-0.98,1.76-1.55c0.42-0.36,0.6-0.23,0.4,0.33
			l-0.08,0.21l-0.59,1.59c0,0,0,0,0,0l-0.39,1.06c-0.4,1.12-0.69,2.04-0.9,2.76c-0.04,0.14-0.08,0.28-0.11,0.4
			c-0.2,0.77-0.3,1.44-0.3,2.02c0,1.01,0.32,1.79,0.97,2.34c0.65,0.55,1.56,0.83,2.73,0.83c1.47,0,3.6-0.71,6.38-2.14
			c0.31-0.16,0.64-0.35,0.96-0.53c1.93-1.05,4.01-2.35,6.25-3.93c0.43,1.58,1.15,2.89,2.19,3.91c1.77,1.74,4.37,2.61,7.78,2.61
			c2.67,0,5.42-0.62,8.25-1.85c2.83-1.23,6.16-3.3,9.97-6.2v-0.01c2.35-1.69,4.38-3.31,6.09-4.87c0.28-0.25,0.55-0.49,0.78-0.71
			c0.27-0.26,0.52-0.52,0.77-0.78c1.6-1.62,2.99-3.29,4.15-5.02c0.24-0.25,0.41-0.32,0.41-0.14v0.45c0,4.31-0.47,7.62-1.42,9.94
			c-0.95,2.32-2.29,3.48-4.04,3.48c-0.47,0-1.18-0.09-2.13-0.28c-0.95-0.19-1.66-0.28-2.13-0.28c-0.77,0-1.28,0.11-1.52,0.32
			c-0.24,0.21-0.36,0.67-0.36,1.38c0,1.46,0.41,2.58,1.23,3.35s2,1.15,3.52,1.15c0.95,0,1.78-0.09,2.51-0.26
			c0.54-0.13,0.91-0.28,1.06-0.34c0.03-0.01,0.06-0.03,0.09-0.04c0.56-0.27,1.13-0.49,1.26-0.49h0.24c1.95,0,4.03-0.44,6.24-1.28
			c0.34-0.13,0.67-0.24,1.02-0.39c0.25-0.11,0.54-0.24,0.84-0.39c2.11-0.98,4.39-2.33,6.87-4.09c0.01-0.01,0.03-0.02,0.03-0.02
			c0,0,0.01-0.01,0.01-0.01c0.51-0.35,0.93-1.18,0.93-1.8v-4.54C370.13,46.37,369.76,46.19,369.31,46.52z M326.28,40.85
			c0.23-0.24,0.46-0.47,0.69-0.67c1.87-1.6,3.55-2.4,5.05-2.4c0.62,0,1.12,0.17,1.5,0.51c0.38,0.34,0.56,0.79,0.56,1.34
			c0,1.34-1.05,2.62-3.14,3.86c-2.1,1.23-4.8,2.09-8.12,2.57C323.6,44.05,324.77,42.32,326.28,40.85z"/>
		<path class="logo-img" d="M45.92,51.78L45.92,51.78c0,0-0.01,0-0.02,0c-0.06,0.01-0.13,0.02-0.19,0.03c-0.6,0.11-2.41,0.43-4.32,0.73
			c-0.18,0.03-0.36,0.06-0.53,0.08c-0.92,0.13-1.85,0.27-2.77,0.38c-2.94,0.33-5.79,0.49-8.53,0.49c-1.1,0-2.22-0.04-3.37-0.13
			c-0.46-0.04-0.93-0.08-1.4-0.13c-0.3-0.03-0.6-0.07-0.9-0.11c-0.02,0-0.04-0.01-0.06-0.01c-0.47-0.06-0.72-0.38-0.68-0.76
			c2.63-3.75,5.59-10.07,8.88-18.97c0.09-0.24,0.18-0.48,0.27-0.71c0.05-0.12,0.09-0.25,0.13-0.35l2.03-5.33
			c0.23-0.58,0.62-1.52,0.88-2.09c0,0,2.84-6.26,4.6-8.61c1.76-2.34,3.34-3.52,4.73-3.52c0.67,0,1.2,0.21,1.57,0.62
			s0.56,1,0.56,1.76c0,1.76-0.9,4.5-2.69,8.22c-1.8,3.72-7.11,12.25-7.11,12.25c-0.02,0.04-0.02,0.07-0.04,0.1
			c-0.23,0.47-0.01,0.77,0.56,0.67l7.42-1.25c0.61-0.1,1.36-0.64,1.66-1.19c0,0,4.23-7.82,5.54-11.17c1.31-3.35,1.96-6.12,1.96-8.32
			c0-2.59-0.74-4.66-2.23-6.18c-1.48-1.52-3.47-2.29-5.97-2.29c-3.69,0-6.93,1.3-9.71,3.91c-2.78,2.61-5.32,6.7-7.62,12.27
			c-0.85,2.07-1.97,5.02-3.35,8.83c-0.08,0.22-0.16,0.43-0.24,0.66c-3.67,10.08-7.1,16.81-10.29,20.18
			c-0.4-0.08-0.77-0.15-1.14-0.21c-0.07-0.01-0.3-0.06-0.63-0.11c-0.34-0.06-0.77-0.12-1.18-0.17c-0.87-0.1-1.7-0.15-2.47-0.15
			c-3.02,0-5.32,0.41-6.9,1.23C0.79,53.28,0,54.45,0,55.96c0,1.46,0.61,2.54,1.83,3.23c1.22,0.69,3.14,1.04,5.76,1.04
			c1.45,0,2.85-0.13,4.21-0.4c0.51-0.1,1.05-0.24,1.52-0.38c0.78-0.23,1.39-0.45,1.39-0.46c0,0,0,0,0,0c0.54-0.2,1.4-0.25,2.01-0.14
			c1.4,0.37,2.77,0.67,4.13,0.92c0.35,0.07,0.71,0.14,1.05,0.2c0.31,0.05,0.61,0.1,0.92,0.15c2.29,0.33,4.57,0.49,6.81,0.49
			c2.07,0,4.28-0.1,6.62-0.3c0.29-0.02,0.6-0.06,0.89-0.09c2.45-0.26,6.03-0.77,6.03-0.77c0.62-0.09,1.29-0.64,1.5-1.23h0l0.62-1.74
			l1.36-3.84C46.87,52.06,46.54,51.67,45.92,51.78z"/>
		<path class="logo-img" d="M193.57,46.43c-0.07,0.03-0.14,0.06-0.22,0.12c0,0-1.51,1.25-4.93,3.62c-0.35,0.25-0.68,0.47-1.01,0.71
			c-1.76,1.23-3.29,2.3-4.59,3.22c-0.5,0.34-0.72,0.17-0.49-0.41h0l4.43-11.09c0.23-0.58-0.09-1.05-0.71-1.05h-4.24
			c-0.53,0-1.14,0.34-1.49,0.78c-0.06,0.07-0.13,0.14-0.17,0.22c0,0-3.09,5.85-5.25,8.07c-2.16,2.22-4.2,3.33-6.12,3.33
			c-0.7,0-1.27-0.35-1.7-1.06c-0.44-0.71-0.66-1.64-0.66-2.8c0-3.55,1.49-6.57,4.47-9.05c2.98-2.48,6.63-3.72,10.95-3.72
			c1.02,0,2.07,0.13,3.14,0.4c0.43,0.1,0.86,0.25,1.29,0.4c0.31,0.11,0.63,0.24,0.95,0.37c0,0,0.01,0.01,0.01,0.01
			c0.57,0.25,1.01-0.06,0.98-0.68l-0.11-1.93L188,33.96c-0.03-0.62-0.56-1.23-1.18-1.34c0,0-1.5-0.28-2.46-0.43
			c-0.14-0.02-0.29-0.05-0.41-0.06c-0.84-0.11-1.6-0.17-2.3-0.17c-6.24,0-11.53,1.85-15.87,5.54c-3.32,2.83-5.36,6.17-6.14,10
			c-1.06,0.8-2.59,1.94-3.88,2.81c-0.29,0.19-0.56,0.37-0.82,0.53c-2.23,1.4-3.57,2.1-4.02,2.1c-0.13,0-0.22-0.07-0.28-0.21
			c-0.06-0.14-0.09-0.35-0.09-0.62c0-0.02,0.12-0.28,0.36-0.76c0.24-0.48,0.24-0.48,0.24-0.48c0.2-0.45,0.57-1.27,0.83-1.83
			l1.69-3.74l2.56-5.66c0,0,0-0.01,0-0.01l0.46-1.02c0.06-0.15,0.14-0.33,0.22-0.53c0-0.01,0.01-0.02,0.01-0.02
			c0.09-0.2,0.18-0.41,0.29-0.66c0.57-1.21,0.88-2.07,0.97-2.6c0.02-0.1,0.04-0.2,0.04-0.28c0-0.61-0.29-1.13-0.88-1.57
			c-0.59-0.44-1.27-0.66-2.04-0.66c-1.72,0-4.15,0.97-7.3,2.91c-3,1.85-7.16,4.94-12.47,9.23c-0.4,0.26-0.54,0.12-0.3-0.4l2.35-5.02
			l2.35-5.02c0.26-0.56-0.03-1.03-0.65-1.03h-4.69c-0.62,0-1.34,0.46-1.6,1.03l-0.52,1.16l-0.52,1.16c-0.26,0.57-0.79,1.42-1.19,1.9
			c0,0-0.46,0.55-2.38,2.32c-0.21,0.19-0.45,0.41-0.7,0.64c-1.72,1.55-4.36,3.84-5.32,4.67v-0.04c-0.27,0.23-0.53,0.44-0.8,0.66
			c-0.03,0.02-0.06,0.02-0.09,0.05c0,0-2.9,2.3-5.13,3.79c-0.29,0.19-0.57,0.38-0.83,0.54c-2.25,1.39-3.62,2.08-4.12,2.08
			c-0.1,0-0.17-0.07-0.22-0.21c-0.02-0.05-0.03-0.13-0.04-0.2c0.01-0.3,0.19-0.92,0.43-1.46c0,0,0,0,0,0l0-0.01
			c0.01-0.03,0.03-0.07,0.05-0.1l0.42-0.93l0.44-0.98l2.08-4.64l4.65-10.39c0.25-0.57-0.05-1.03-0.67-1.03h-4.69
			c-0.62,0-1.34,0.46-1.6,1.03l-0.52,1.16l-0.52,1.16c-0.26,0.57-0.79,1.42-1.19,1.9c0,0-0.46,0.55-2.38,2.32
			c-0.21,0.19-0.45,0.41-0.7,0.64c-1.84,1.66-4.73,4.16-5.5,4.82c-0.8,0.57-2.41,1.66-2.96,1.66c-0.15,0-0.31-0.01-0.49-0.04
			c-0.05-0.01-0.13-0.02-0.19-0.04c-0.35-0.1-0.43-0.54-0.21-1.02c1.04-1.83,1.86-3.48,2.46-4.96c0.1-0.25,0.21-0.51,0.3-0.74
			c0.7-1.89,1.05-3.62,1.05-5.18c0-0.96-0.24-1.71-0.71-2.27c-0.47-0.55-1.11-0.83-1.91-0.83c-1.85,0-3.56,1.34-5.15,4.01
			c-1.58,2.67-2.81,6.34-3.69,11c-1.85,2.32-3.55,4.09-5.11,5.31c-1.56,1.22-2.89,1.83-3.99,1.83c-0.52,0-0.9-0.11-1.12-0.34
			c-0.22-0.23-0.34-0.6-0.34-1.13c0-0.4,0.04-0.8,0.13-1.19c0.04-0.19,0.1-0.38,0.16-0.56c0.18-0.44,0.48-1.12,0.71-1.62
			c0,0,0,0,0,0l7.39-15.9c0.26-0.57-0.03-1.03-0.66-1.03h-4.69c-0.62,0-1.34,0.46-1.6,1.03l-0.52,1.16l-0.52,1.16
			c-0.26,0.57-0.79,1.42-1.19,1.9c0,0-0.46,0.55-2.38,2.32c-0.21,0.19-0.45,0.41-0.7,0.64c-1.72,1.55-4.36,3.84-5.32,4.67v-0.04
			c-0.27,0.23-0.53,0.44-0.8,0.66c-0.03,0.02-0.06,0.02-0.09,0.05c0,0-2.9,2.3-5.13,3.79c-0.29,0.19-0.57,0.38-0.83,0.54
			c-2.25,1.39-3.62,2.08-4.12,2.08c-0.1,0-0.17-0.07-0.22-0.21c-0.02-0.05-0.03-0.13-0.04-0.2c0.01-0.3,0.19-0.92,0.43-1.46l0,0
			l0-0.01c0.01-0.03,0.03-0.07,0.05-0.1l0.42-0.93l0.44-0.98l2.08-4.64l4.65-10.39c0.25-0.57-0.05-1.03-0.67-1.03h-4.69
			c-0.62,0-1.34,0.46-1.6,1.03l-0.52,1.16l-0.52,1.16c-0.26,0.57-0.79,1.42-1.19,1.9c0,0-0.46,0.55-2.38,2.32
			c-0.21,0.19-0.45,0.41-0.7,0.64c-2.13,1.92-5.7,4.99-5.7,4.99c-0.01,0.01-0.01,0.02-0.02,0.03c-0.46,0.41-0.84,1.23-0.84,1.85
			v4.31c0,0.62,0.43,0.85,0.95,0.51c0,0,0.03-0.02,0.06-0.04c0.12-0.08,0.46-0.32,1-0.74c0.36-0.28,0.7-0.55,0.94-0.75
			c0.21-0.17,0.34-0.29,0.35-0.29l0,0c0.47-0.4,0.68-0.26,0.45,0.32l-0.1,0.25l-0.1,0.25l-0.41,1.06c-0.07,0.19-0.12,0.38-0.19,0.57
			c-0.07,0.18-0.13,0.36-0.18,0.51c0,0-0.06,0.18-0.15,0.47c-0.09,0.31-0.21,0.73-0.31,1.2c-0.2,0.89-0.3,1.64-0.3,2.25
			c0,0.86,0.31,1.54,0.94,2.06c0.62,0.52,1.48,0.78,2.58,0.78c1.85,0,4.15-0.68,6.92-2.04c0.28-0.14,0.59-0.3,0.92-0.49
			c2.36-1.24,4.98-2.91,7.89-5.06c0.15-0.1,0.29-0.19,0.44-0.29c0,0,0,0,0,0c0,0,0.03-0.02,0.06-0.04c0.12-0.08,0.46-0.32,1-0.74
			c0.36-0.28,0.7-0.55,0.94-0.75c0.21-0.17,0.34-0.29,0.35-0.29l0,0c0.47-0.4,0.72-0.25,0.55,0.35c0,0-0.01,0.02-0.01,0.05
			c-0.02,0.06-0.05,0.19-0.1,0.36c-0.08,0.29-0.18,0.69-0.27,1.12c-0.16,0.78-0.24,1.46-0.24,2.04c0,1.84,0.62,3.25,1.85,4.23
			c1.24,0.98,3.02,1.47,5.37,1.47c2.44,0,4.75-0.59,6.92-1.78c1.99-1.08,4.09-2.82,6.31-5.2c0.46-0.32,1.14-0.41,1.64-0.18
			c0,0,0.32,0.15,0.99,0.32c0.67,0.18,1.41,0.26,2.21,0.26c1.05,0,2.01-0.21,2.9-0.62c0.01,0,0.01-0.01,0.02-0.01v0.03
			c0.07-0.04,0.13-0.09,0.2-0.13c0.07-0.04,0.13-0.07,0.2-0.11c0.73-0.4,1.51-0.98,2.34-1.74c0.07-0.06,0.14-0.11,0.2-0.16
			c0.21-0.17,0.34-0.29,0.35-0.29l0,0c0.47-0.4,0.68-0.26,0.45,0.32l-0.1,0.25l-0.1,0.25l-0.41,1.06c-0.07,0.19-0.12,0.38-0.19,0.57
			c-0.07,0.18-0.13,0.36-0.18,0.51c0,0-0.06,0.18-0.15,0.47c-0.09,0.31-0.21,0.73-0.31,1.2c-0.2,0.89-0.3,1.64-0.3,2.25
			c0,0.86,0.31,1.54,0.94,2.06c0.62,0.52,1.48,0.78,2.58,0.78c1.85,0,4.15-0.68,6.92-2.04c0.28-0.14,0.59-0.3,0.92-0.49
			c2.36-1.24,4.98-2.91,7.89-5.06c0.15-0.1,0.29-0.19,0.44-0.29c0,0,0,0,0,0c0,0,0.03-0.02,0.06-0.04c0.12-0.08,0.46-0.32,1-0.74
			c0.36-0.28,0.7-0.55,0.94-0.75c0.21-0.17,0.34-0.29,0.35-0.29l0,0c0.47-0.4,0.64-0.27,0.37,0.29l-0.86,1.79l-0.86,1.79
			c0,0,0,0,0,0l-0.49,1.02c-0.11,0.24-0.2,0.47-0.27,0.69c-0.03,0.06-0.06,0.13-0.08,0.19c0,0,0,0-0.1,0.38s-0.15,0.72-0.15,1.02
			c0,0.73,0.22,1.36,0.65,1.89s0.95,0.79,1.55,0.79c1.25,0,4.44-2.28,9.58-6.84c5.14-4.56,13.43-10.95,13.43-10.95
			c0.49-0.38,0.69-0.23,0.43,0.34l-1.99,4.43l-2.45,5.46c-0.48,1.06-0.82,1.89-1.04,2.52c-0.04,0.12-0.09,0.25-0.12,0.35
			c-0.2,0.66-0.3,1.25-0.3,1.78c0,0.83,0.34,1.5,1.01,2c0.67,0.5,1.56,0.76,2.66,0.76c1.82,0,4.12-0.69,6.89-2.06
			c2.17-1.08,4.6-2.56,7.28-4.43c0.32,1.67,0.92,3.04,1.8,4.09c1.38,1.65,3.39,2.48,6.01,2.48c1.2,0,2.33-0.23,3.41-0.7
			c0.16-0.07,0.32-0.16,0.48-0.24c0.17-0.09,0.34-0.19,0.5-0.3c0.52-0.31,1.05-0.66,1.57-1.11c0.29-0.15,0.39,0.02,0.2,0.48
			l-0.58,1.39c-0.19,0.45-0.55,1.08-0.88,1.57c-2.93,3.48-5.22,6.69-6.86,9.64c-1.72,3.1-2.58,5.57-2.58,7.41
			c0,1.21,0.32,2.17,0.95,2.87c0.64,0.71,1.52,1.06,2.64,1.06c1.47,0,2.86-0.95,4.15-2.83c1.3-1.89,3.28-6.34,5.95-13.34
			c0.12-0.14,0.27-0.29,0.42-0.44c2.88-3.11,7.52-6.84,13.95-11.2c0.24-0.16,0.45-0.31,0.67-0.46c0.09-0.06,0.19-0.13,0.26-0.18
			l1.69-1.17c0.51-0.36,0.93-1.16,0.93-1.78v-4.54C194.23,46.44,193.95,46.25,193.57,46.43z"/>
	</g>
</g>
      <use class='logo-img' xlink:href='#logo-img'></use>
</svg>